<svg width="36" height="36" viewBox="0 0 36 36" fill="none" xmlns="http://www.w3.org/2000/svg">
<circle opacity="0.2" cx="18" cy="18" r="18" fill="white"/>
<path d="M18 14.25C17.2583 14.25 16.5333 14.4699 15.9166 14.882C15.2999 15.294 14.8193 15.8797 14.5355 16.5649C14.2516 17.2502 14.1774 18.0042 14.3221 18.7316C14.4668 19.459 14.8239 20.1272 15.3483 20.6517C15.8728 21.1761 16.541 21.5333 17.2684 21.6779C17.9958 21.8226 18.7498 21.7484 19.4351 21.4645C20.1203 21.1807 20.706 20.7001 21.118 20.0834C21.5301 19.4667 21.75 18.7417 21.75 18C21.75 17.0054 21.3549 16.0516 20.6517 15.3483C19.9484 14.6451 18.9946 14.25 18 14.25ZM18 20.5C17.5055 20.5 17.0222 20.3534 16.6111 20.0787C16.2 19.804 15.8795 19.4135 15.6903 18.9567C15.5011 18.4999 15.4516 17.9972 15.548 17.5123C15.6445 17.0273 15.8826 16.5819 16.2322 16.2322C16.5819 15.8826 17.0273 15.6445 17.5123 15.548C17.9972 15.4516 18.4999 15.5011 18.9567 15.6903C19.4135 15.8795 19.804 16.2 20.0787 16.6111C20.3534 17.0222 20.5 17.5055 20.5 18C20.4979 18.6624 20.2339 19.2971 19.7655 19.7655C19.2971 20.2339 18.6624 20.4979 18 20.5ZM21.4375 10.1875H14.5625C13.4022 10.1875 12.2894 10.6484 11.4689 11.4689C10.6484 12.2894 10.1875 13.4022 10.1875 14.5625V21.4375C10.1875 22.5978 10.6484 23.7106 11.4689 24.5311C12.2894 25.3516 13.4022 25.8125 14.5625 25.8125H21.4375C22.5978 25.8125 23.7106 25.3516 24.5311 24.5311C25.3516 23.7106 25.8125 22.5978 25.8125 21.4375V14.5625C25.8125 13.4022 25.3516 12.2894 24.5311 11.4689C23.7106 10.6484 22.5978 10.1875 21.4375 10.1875ZM24.5625 21.4375C24.5625 21.8479 24.4817 22.2542 24.3246 22.6334C24.1676 23.0125 23.9374 23.357 23.6472 23.6472C23.357 23.9374 23.0125 24.1676 22.6334 24.3246C22.2542 24.4817 21.8479 24.5625 21.4375 24.5625H14.5625C14.1521 24.5625 13.7458 24.4817 13.3666 24.3246C12.9875 24.1676 12.643 23.9374 12.3528 23.6472C12.0626 23.357 11.8324 23.0125 11.6754 22.6334C11.5183 22.2542 11.4375 21.8479 11.4375 21.4375V14.5625C11.4375 13.7337 11.7667 12.9388 12.3528 12.3528C12.9388 11.7667 13.7337 11.4375 14.5625 11.4375H21.4375C21.8479 11.4375 22.2542 11.5183 22.6334 11.6754C23.0125 11.8324 23.357 12.0626 23.6472 12.3528C23.9374 12.643 24.1676 12.9875 24.3246 13.3666C24.4817 13.7458 24.5625 14.1521 24.5625 14.5625V21.4375ZM23 13.9375C23 14.1229 22.945 14.3042 22.842 14.4583C22.739 14.6125 22.5926 14.7327 22.4213 14.8036C22.25 14.8746 22.0615 14.8932 21.8796 14.857C21.6977 14.8208 21.5307 14.7315 21.3996 14.6004C21.2685 14.4693 21.1792 14.3023 21.143 14.1204C21.1068 13.9385 21.1254 13.75 21.1964 13.5787C21.2673 13.4074 21.3875 13.261 21.5417 13.158C21.6958 13.055 21.8771 13 22.0625 13C22.3111 13 22.5496 13.0988 22.7254 13.2746C22.9012 13.4504 23 13.6889 23 13.9375Z" fill="white" stroke="white" stroke-width="0.5"/>
</svg>
