<svg width="36" height="36" viewBox="0 0 36 36" fill="none" xmlns="http://www.w3.org/2000/svg">
<circle opacity="0.2" cx="18" cy="18" r="18" fill="white"/>
<path d="M13.7833 12.1665C13.7831 12.6086 13.6073 13.0324 13.2945 13.3448C12.9818 13.6572 12.5578 13.8326 12.1158 13.8324C11.6738 13.8321 11.2499 13.6563 10.9375 13.3436C10.6251 13.0309 10.4497 12.6069 10.45 12.1649C10.4502 11.7228 10.626 11.299 10.9387 10.9866C11.2514 10.6742 11.6754 10.4988 12.1175 10.499C12.5595 10.4992 12.9833 10.6751 13.2957 10.9878C13.6081 11.3005 13.7835 11.7245 13.7833 12.1665ZM13.8333 15.0665H10.5V25.4999H13.8333V15.0665ZM19.1 15.0665H15.7833V25.4999H19.0666V20.0249C19.0666 16.9749 23.0416 16.6915 23.0416 20.0249V25.4999H26.3333V18.8915C26.3333 13.7499 20.45 13.9415 19.0666 16.4665L19.1 15.0665Z" fill="white"/>
</svg>
