<svg width="36" height="36" viewBox="0 0 36 36" fill="none" xmlns="http://www.w3.org/2000/svg">
<circle opacity="0.2" cx="18" cy="18" r="18" fill="white"/>
<path d="M26.7168 12.9997C26.0751 13.2913 25.3834 13.483 24.6668 13.5747C25.4001 13.133 25.9668 12.433 26.2334 11.5913C25.5418 12.008 24.7751 12.2997 23.9668 12.4663C23.3084 11.7497 22.3834 11.333 21.3334 11.333C19.3751 11.333 17.7751 12.933 17.7751 14.908C17.7751 15.1913 17.8084 15.4663 17.8668 15.7247C14.9001 15.5747 12.2584 14.1497 10.5001 11.9913C10.1918 12.5163 10.0168 13.133 10.0168 13.783C10.0168 15.0247 10.6418 16.1247 11.6084 16.7497C11.0168 16.7497 10.4668 16.583 9.98345 16.333V16.358C9.98345 18.0913 11.2168 19.5413 12.8501 19.8663C12.3257 20.0098 11.7752 20.0298 11.2418 19.9247C11.4681 20.6351 11.9114 21.2567 12.5093 21.7021C13.1072 22.1476 13.8297 22.3944 14.5751 22.408C13.3115 23.4084 11.7451 23.9491 10.1334 23.9413C9.85011 23.9413 9.56678 23.9247 9.28345 23.8913C10.8668 24.908 12.7501 25.4997 14.7668 25.4997C21.3334 25.4997 24.9418 20.0497 24.9418 15.3247C24.9418 15.1663 24.9418 15.0163 24.9334 14.858C25.6334 14.358 26.2334 13.7247 26.7168 12.9997Z" fill="white"/>
</svg>
