<svg width="440" height="342" viewBox="0 0 440 342" fill="none" xmlns="http://www.w3.org/2000/svg">
<g opacity="0.2">
<circle cx="3" cy="3" r="3" fill="#010415"/>
<circle cx="17" cy="3" r="3" fill="#010415"/>
<circle cx="31" cy="3" r="3" fill="#010415"/>
<circle cx="45" cy="3" r="3" fill="#010415"/>
<circle cx="59" cy="3" r="3" fill="#010415"/>
<circle cx="73" cy="3" r="3" fill="#010415"/>
<circle cx="87" cy="3" r="3" fill="#010415"/>
<circle cx="101" cy="3" r="3" fill="#010415"/>
<circle cx="115" cy="3" r="3" fill="#010415"/>
<circle cx="129" cy="3" r="3" fill="#010415"/>
<circle cx="143" cy="3" r="3" fill="#010415"/>
<circle cx="157" cy="3" r="3" fill="#010415"/>
<circle cx="171" cy="3" r="3" fill="#010415"/>
<circle cx="185" cy="3" r="3" fill="#010415"/>
<circle cx="199" cy="3" r="3" fill="#010415"/>
<circle cx="213" cy="3" r="3" fill="#010415"/>
<circle cx="227" cy="3" r="3" fill="#010415"/>
<circle cx="241" cy="3" r="3" fill="#010415"/>
<circle cx="255" cy="3" r="3" fill="#010415"/>
<circle cx="269" cy="3" r="3" fill="#010415"/>
<circle cx="283" cy="3" r="3" fill="#010415"/>
<circle cx="297" cy="3" r="3" fill="#010415"/>
<circle cx="311" cy="3" r="3" fill="#010415"/>
<circle cx="325" cy="3" r="3" fill="#010415"/>
<circle cx="339" cy="3" r="3" fill="#010415"/>
<circle cx="353" cy="3" r="3" fill="#010415"/>
<circle cx="367" cy="3" r="3" fill="#010415"/>
<circle cx="381" cy="3" r="3" fill="#010415"/>
<circle cx="395" cy="3" r="3" fill="#010415"/>
<circle cx="409" cy="3" r="3" fill="#010415"/>
<circle cx="423" cy="3" r="3" fill="#010415"/>
<circle cx="437" cy="3" r="3" fill="#010415"/>
<circle cx="3" cy="17" r="3" fill="#010415"/>
<circle cx="17" cy="17" r="3" fill="#010415"/>
<circle cx="31" cy="17" r="3" fill="#010415"/>
<circle cx="45" cy="17" r="3" fill="#010415"/>
<circle cx="59" cy="17" r="3" fill="#010415"/>
<circle cx="73" cy="17" r="3" fill="#010415"/>
<circle cx="87" cy="17" r="3" fill="#010415"/>
<circle cx="101" cy="17" r="3" fill="#010415"/>
<circle cx="115" cy="17" r="3" fill="#010415"/>
<circle cx="129" cy="17" r="3" fill="#010415"/>
<circle cx="143" cy="17" r="3" fill="#010415"/>
<circle cx="157" cy="17" r="3" fill="#010415"/>
<circle cx="171" cy="17" r="3" fill="#010415"/>
<circle cx="185" cy="17" r="3" fill="#010415"/>
<circle cx="199" cy="17" r="3" fill="#010415"/>
<circle cx="213" cy="17" r="3" fill="#010415"/>
<circle cx="227" cy="17" r="3" fill="#010415"/>
<circle cx="241" cy="17" r="3" fill="#010415"/>
<circle cx="255" cy="17" r="3" fill="#010415"/>
<circle cx="269" cy="17" r="3" fill="#010415"/>
<circle cx="283" cy="17" r="3" fill="#010415"/>
<circle cx="297" cy="17" r="3" fill="#010415"/>
<circle cx="311" cy="17" r="3" fill="#010415"/>
<circle cx="325" cy="17" r="3" fill="#010415"/>
<circle cx="339" cy="17" r="3" fill="#010415"/>
<circle cx="353" cy="17" r="3" fill="#010415"/>
<circle cx="367" cy="17" r="3" fill="#010415"/>
<circle cx="381" cy="17" r="3" fill="#010415"/>
<circle cx="395" cy="17" r="3" fill="#010415"/>
<circle cx="409" cy="17" r="3" fill="#010415"/>
<circle cx="423" cy="17" r="3" fill="#010415"/>
<circle cx="437" cy="17" r="3" fill="#010415"/>
<circle cx="3" cy="31" r="3" fill="#010415"/>
<circle cx="17" cy="31" r="3" fill="#010415"/>
<circle cx="31" cy="31" r="3" fill="#010415"/>
<circle cx="45" cy="31" r="3" fill="#010415"/>
<circle cx="59" cy="31" r="3" fill="#010415"/>
<circle cx="73" cy="31" r="3" fill="#010415"/>
<circle cx="87" cy="31" r="3" fill="#010415"/>
<circle cx="101" cy="31" r="3" fill="#010415"/>
<circle cx="115" cy="31" r="3" fill="#010415"/>
<circle cx="129" cy="31" r="3" fill="#010415"/>
<circle cx="143" cy="31" r="3" fill="#010415"/>
<circle cx="157" cy="31" r="3" fill="#010415"/>
<circle cx="171" cy="31" r="3" fill="#010415"/>
<circle cx="185" cy="31" r="3" fill="#010415"/>
<circle cx="199" cy="31" r="3" fill="#010415"/>
<circle cx="213" cy="31" r="3" fill="#010415"/>
<circle cx="227" cy="31" r="3" fill="#010415"/>
<circle cx="241" cy="31" r="3" fill="#010415"/>
<circle cx="255" cy="31" r="3" fill="#010415"/>
<circle cx="269" cy="31" r="3" fill="#010415"/>
<circle cx="283" cy="31" r="3" fill="#010415"/>
<circle cx="297" cy="31" r="3" fill="#010415"/>
<circle cx="311" cy="31" r="3" fill="#010415"/>
<circle cx="325" cy="31" r="3" fill="#010415"/>
<circle cx="339" cy="31" r="3" fill="#010415"/>
<circle cx="353" cy="31" r="3" fill="#010415"/>
<circle cx="367" cy="31" r="3" fill="#010415"/>
<circle cx="381" cy="31" r="3" fill="#010415"/>
<circle cx="395" cy="31" r="3" fill="#010415"/>
<circle cx="409" cy="31" r="3" fill="#010415"/>
<circle cx="423" cy="31" r="3" fill="#010415"/>
<circle cx="437" cy="31" r="3" fill="#010415"/>
<circle cx="3" cy="45" r="3" fill="#010415"/>
<circle cx="17" cy="45" r="3" fill="#010415"/>
<circle cx="31" cy="45" r="3" fill="#010415"/>
<circle cx="45" cy="45" r="3" fill="#010415"/>
<circle cx="59" cy="45" r="3" fill="#010415"/>
<circle cx="73" cy="45" r="3" fill="#010415"/>
<circle cx="87" cy="45" r="3" fill="#010415"/>
<circle cx="101" cy="45" r="3" fill="#010415"/>
<circle cx="115" cy="45" r="3" fill="#010415"/>
<circle cx="129" cy="45" r="3" fill="#010415"/>
<circle cx="143" cy="45" r="3" fill="#010415"/>
<circle cx="157" cy="45" r="3" fill="#010415"/>
<circle cx="171" cy="45" r="3" fill="#010415"/>
<circle cx="185" cy="45" r="3" fill="#010415"/>
<circle cx="199" cy="45" r="3" fill="#010415"/>
<circle cx="213" cy="45" r="3" fill="#010415"/>
<circle cx="227" cy="45" r="3" fill="#010415"/>
<circle cx="241" cy="45" r="3" fill="#010415"/>
<circle cx="255" cy="45" r="3" fill="#010415"/>
<circle cx="269" cy="45" r="3" fill="#010415"/>
<circle cx="283" cy="45" r="3" fill="#010415"/>
<circle cx="297" cy="45" r="3" fill="#010415"/>
<circle cx="311" cy="45" r="3" fill="#010415"/>
<circle cx="325" cy="45" r="3" fill="#010415"/>
<circle cx="339" cy="45" r="3" fill="#010415"/>
<circle cx="353" cy="45" r="3" fill="#010415"/>
<circle cx="367" cy="45" r="3" fill="#010415"/>
<circle cx="381" cy="45" r="3" fill="#010415"/>
<circle cx="395" cy="45" r="3" fill="#010415"/>
<circle cx="409" cy="45" r="3" fill="#010415"/>
<circle cx="423" cy="45" r="3" fill="#010415"/>
<circle cx="437" cy="45" r="3" fill="#010415"/>
<circle cx="3" cy="59" r="3" fill="#010415"/>
<circle cx="17" cy="59" r="3" fill="#010415"/>
<circle cx="31" cy="59" r="3" fill="#010415"/>
<circle cx="45" cy="59" r="3" fill="#010415"/>
<circle cx="59" cy="59" r="3" fill="#010415"/>
<circle cx="73" cy="59" r="3" fill="#010415"/>
<circle cx="87" cy="59" r="3" fill="#010415"/>
<circle cx="101" cy="59" r="3" fill="#010415"/>
<circle cx="115" cy="59" r="3" fill="#010415"/>
<circle cx="129" cy="59" r="3" fill="#010415"/>
<circle cx="143" cy="59" r="3" fill="#010415"/>
<circle cx="157" cy="59" r="3" fill="#010415"/>
<circle cx="171" cy="59" r="3" fill="#010415"/>
<circle cx="185" cy="59" r="3" fill="#010415"/>
<circle cx="199" cy="59" r="3" fill="#010415"/>
<circle cx="213" cy="59" r="3" fill="#010415"/>
<circle cx="227" cy="59" r="3" fill="#010415"/>
<circle cx="241" cy="59" r="3" fill="#010415"/>
<circle cx="255" cy="59" r="3" fill="#010415"/>
<circle cx="269" cy="59" r="3" fill="#010415"/>
<circle cx="283" cy="59" r="3" fill="#010415"/>
<circle cx="297" cy="59" r="3" fill="#010415"/>
<circle cx="311" cy="59" r="3" fill="#010415"/>
<circle cx="325" cy="59" r="3" fill="#010415"/>
<circle cx="339" cy="59" r="3" fill="#010415"/>
<circle cx="353" cy="59" r="3" fill="#010415"/>
<circle cx="367" cy="59" r="3" fill="#010415"/>
<circle cx="381" cy="59" r="3" fill="#010415"/>
<circle cx="395" cy="59" r="3" fill="#010415"/>
<circle cx="409" cy="59" r="3" fill="#010415"/>
<circle cx="423" cy="59" r="3" fill="#010415"/>
<circle cx="437" cy="59" r="3" fill="#010415"/>
<circle cx="3" cy="73" r="3" fill="#010415"/>
<circle cx="17" cy="73" r="3" fill="#010415"/>
<circle cx="31" cy="73" r="3" fill="#010415"/>
<circle cx="45" cy="73" r="3" fill="#010415"/>
<circle cx="59" cy="73" r="3" fill="#010415"/>
<circle cx="73" cy="73" r="3" fill="#010415"/>
<circle cx="87" cy="73" r="3" fill="#010415"/>
<circle cx="101" cy="73" r="3" fill="#010415"/>
<circle cx="115" cy="73" r="3" fill="#010415"/>
<circle cx="129" cy="73" r="3" fill="#010415"/>
<circle cx="143" cy="73" r="3" fill="#010415"/>
<circle cx="157" cy="73" r="3" fill="#010415"/>
<circle cx="171" cy="73" r="3" fill="#010415"/>
<circle cx="185" cy="73" r="3" fill="#010415"/>
<circle cx="199" cy="73" r="3" fill="#010415"/>
<circle cx="213" cy="73" r="3" fill="#010415"/>
<circle cx="227" cy="73" r="3" fill="#010415"/>
<circle cx="241" cy="73" r="3" fill="#010415"/>
<circle cx="255" cy="73" r="3" fill="#010415"/>
<circle cx="269" cy="73" r="3" fill="#010415"/>
<circle cx="283" cy="73" r="3" fill="#010415"/>
<circle cx="297" cy="73" r="3" fill="#010415"/>
<circle cx="311" cy="73" r="3" fill="#010415"/>
<circle cx="325" cy="73" r="3" fill="#010415"/>
<circle cx="339" cy="73" r="3" fill="#010415"/>
<circle cx="353" cy="73" r="3" fill="#010415"/>
<circle cx="367" cy="73" r="3" fill="#010415"/>
<circle cx="381" cy="73" r="3" fill="#010415"/>
<circle cx="395" cy="73" r="3" fill="#010415"/>
<circle cx="409" cy="73" r="3" fill="#010415"/>
<circle cx="423" cy="73" r="3" fill="#010415"/>
<circle cx="437" cy="73" r="3" fill="#010415"/>
<circle cx="3" cy="87" r="3" fill="#010415"/>
<circle cx="17" cy="87" r="3" fill="#010415"/>
<circle cx="31" cy="87" r="3" fill="#010415"/>
<circle cx="45" cy="87" r="3" fill="#010415"/>
<circle cx="59" cy="87" r="3" fill="#010415"/>
<circle cx="73" cy="87" r="3" fill="#010415"/>
<circle cx="87" cy="87" r="3" fill="#010415"/>
<circle cx="101" cy="87" r="3" fill="#010415"/>
<circle cx="115" cy="87" r="3" fill="#010415"/>
<circle cx="129" cy="87" r="3" fill="#010415"/>
<circle cx="143" cy="87" r="3" fill="#010415"/>
<circle cx="157" cy="87" r="3" fill="#010415"/>
<circle cx="171" cy="87" r="3" fill="#010415"/>
<circle cx="185" cy="87" r="3" fill="#010415"/>
<circle cx="199" cy="87" r="3" fill="#010415"/>
<circle cx="213" cy="87" r="3" fill="#010415"/>
<circle cx="227" cy="87" r="3" fill="#010415"/>
<circle cx="241" cy="87" r="3" fill="#010415"/>
<circle cx="255" cy="87" r="3" fill="#010415"/>
<circle cx="269" cy="87" r="3" fill="#010415"/>
<circle cx="283" cy="87" r="3" fill="#010415"/>
<circle cx="297" cy="87" r="3" fill="#010415"/>
<circle cx="311" cy="87" r="3" fill="#010415"/>
<circle cx="325" cy="87" r="3" fill="#010415"/>
<circle cx="339" cy="87" r="3" fill="#010415"/>
<circle cx="353" cy="87" r="3" fill="#010415"/>
<circle cx="367" cy="87" r="3" fill="#010415"/>
<circle cx="381" cy="87" r="3" fill="#010415"/>
<circle cx="395" cy="87" r="3" fill="#010415"/>
<circle cx="409" cy="87" r="3" fill="#010415"/>
<circle cx="423" cy="87" r="3" fill="#010415"/>
<circle cx="437" cy="87" r="3" fill="#010415"/>
<circle cx="3" cy="101" r="3" fill="#010415"/>
<circle cx="17" cy="101" r="3" fill="#010415"/>
<circle cx="31" cy="101" r="3" fill="#010415"/>
<circle cx="45" cy="101" r="3" fill="#010415"/>
<circle cx="59" cy="101" r="3" fill="#010415"/>
<circle cx="73" cy="101" r="3" fill="#010415"/>
<circle cx="87" cy="101" r="3" fill="#010415"/>
<circle cx="101" cy="101" r="3" fill="#010415"/>
<circle cx="115" cy="101" r="3" fill="#010415"/>
<circle cx="129" cy="101" r="3" fill="#010415"/>
<circle cx="143" cy="101" r="3" fill="#010415"/>
<circle cx="157" cy="101" r="3" fill="#010415"/>
<circle cx="171" cy="101" r="3" fill="#010415"/>
<circle cx="185" cy="101" r="3" fill="#010415"/>
<circle cx="199" cy="101" r="3" fill="#010415"/>
<circle cx="213" cy="101" r="3" fill="#010415"/>
<circle cx="227" cy="101" r="3" fill="#010415"/>
<circle cx="241" cy="101" r="3" fill="#010415"/>
<circle cx="255" cy="101" r="3" fill="#010415"/>
<circle cx="269" cy="101" r="3" fill="#010415"/>
<circle cx="283" cy="101" r="3" fill="#010415"/>
<circle cx="297" cy="101" r="3" fill="#010415"/>
<circle cx="311" cy="101" r="3" fill="#010415"/>
<circle cx="325" cy="101" r="3" fill="#010415"/>
<circle cx="339" cy="101" r="3" fill="#010415"/>
<circle cx="353" cy="101" r="3" fill="#010415"/>
<circle cx="367" cy="101" r="3" fill="#010415"/>
<circle cx="381" cy="101" r="3" fill="#010415"/>
<circle cx="395" cy="101" r="3" fill="#010415"/>
<circle cx="409" cy="101" r="3" fill="#010415"/>
<circle cx="423" cy="101" r="3" fill="#010415"/>
<circle cx="437" cy="101" r="3" fill="#010415"/>
<circle cx="3" cy="115" r="3" fill="#010415"/>
<circle cx="17" cy="115" r="3" fill="#010415"/>
<circle cx="31" cy="115" r="3" fill="#010415"/>
<circle cx="45" cy="115" r="3" fill="#010415"/>
<circle cx="59" cy="115" r="3" fill="#010415"/>
<circle cx="73" cy="115" r="3" fill="#010415"/>
<circle cx="87" cy="115" r="3" fill="#010415"/>
<circle cx="101" cy="115" r="3" fill="#010415"/>
<circle cx="115" cy="115" r="3" fill="#010415"/>
<circle cx="129" cy="115" r="3" fill="#010415"/>
<circle cx="143" cy="115" r="3" fill="#010415"/>
<circle cx="157" cy="115" r="3" fill="#010415"/>
<circle cx="171" cy="115" r="3" fill="#010415"/>
<circle cx="185" cy="115" r="3" fill="#010415"/>
<circle cx="199" cy="115" r="3" fill="#010415"/>
<circle cx="213" cy="115" r="3" fill="#010415"/>
<circle cx="227" cy="115" r="3" fill="#010415"/>
<circle cx="241" cy="115" r="3" fill="#010415"/>
<circle cx="255" cy="115" r="3" fill="#010415"/>
<circle cx="269" cy="115" r="3" fill="#010415"/>
<circle cx="283" cy="115" r="3" fill="#010415"/>
<circle cx="297" cy="115" r="3" fill="#010415"/>
<circle cx="311" cy="115" r="3" fill="#010415"/>
<circle cx="325" cy="115" r="3" fill="#010415"/>
<circle cx="339" cy="115" r="3" fill="#010415"/>
<circle cx="353" cy="115" r="3" fill="#010415"/>
<circle cx="367" cy="115" r="3" fill="#010415"/>
<circle cx="381" cy="115" r="3" fill="#010415"/>
<circle cx="395" cy="115" r="3" fill="#010415"/>
<circle cx="409" cy="115" r="3" fill="#010415"/>
<circle cx="423" cy="115" r="3" fill="#010415"/>
<circle cx="437" cy="115" r="3" fill="#010415"/>
<circle cx="3" cy="129" r="3" fill="#010415"/>
<circle cx="17" cy="129" r="3" fill="#010415"/>
<circle cx="31" cy="129" r="3" fill="#010415"/>
<circle cx="45" cy="129" r="3" fill="#010415"/>
<circle cx="59" cy="129" r="3" fill="#010415"/>
<circle cx="73" cy="129" r="3" fill="#010415"/>
<circle cx="87" cy="129" r="3" fill="#010415"/>
<circle cx="101" cy="129" r="3" fill="#010415"/>
<circle cx="115" cy="129" r="3" fill="#010415"/>
<circle cx="129" cy="129" r="3" fill="#010415"/>
<circle cx="143" cy="129" r="3" fill="#010415"/>
<circle cx="157" cy="129" r="3" fill="#010415"/>
<circle cx="171" cy="129" r="3" fill="#010415"/>
<circle cx="185" cy="129" r="3" fill="#010415"/>
<circle cx="199" cy="129" r="3" fill="#010415"/>
<circle cx="213" cy="129" r="3" fill="#010415"/>
<circle cx="227" cy="129" r="3" fill="#010415"/>
<circle cx="241" cy="129" r="3" fill="#010415"/>
<circle cx="255" cy="129" r="3" fill="#010415"/>
<circle cx="269" cy="129" r="3" fill="#010415"/>
<circle cx="283" cy="129" r="3" fill="#010415"/>
<circle cx="297" cy="129" r="3" fill="#010415"/>
<circle cx="311" cy="129" r="3" fill="#010415"/>
<circle cx="325" cy="129" r="3" fill="#010415"/>
<circle cx="339" cy="129" r="3" fill="#010415"/>
<circle cx="353" cy="129" r="3" fill="#010415"/>
<circle cx="367" cy="129" r="3" fill="#010415"/>
<circle cx="381" cy="129" r="3" fill="#010415"/>
<circle cx="395" cy="129" r="3" fill="#010415"/>
<circle cx="409" cy="129" r="3" fill="#010415"/>
<circle cx="423" cy="129" r="3" fill="#010415"/>
<circle cx="437" cy="129" r="3" fill="#010415"/>
<circle cx="3" cy="143" r="3" fill="#010415"/>
<circle cx="17" cy="143" r="3" fill="#010415"/>
<circle cx="31" cy="143" r="3" fill="#010415"/>
<circle cx="45" cy="143" r="3" fill="#010415"/>
<circle cx="59" cy="143" r="3" fill="#010415"/>
<circle cx="73" cy="143" r="3" fill="#010415"/>
<circle cx="87" cy="143" r="3" fill="#010415"/>
<circle cx="101" cy="143" r="3" fill="#010415"/>
<circle cx="115" cy="143" r="3" fill="#010415"/>
<circle cx="129" cy="143" r="3" fill="#010415"/>
<circle cx="143" cy="143" r="3" fill="#010415"/>
<circle cx="157" cy="143" r="3" fill="#010415"/>
<circle cx="171" cy="143" r="3" fill="#010415"/>
<circle cx="185" cy="143" r="3" fill="#010415"/>
<circle cx="199" cy="143" r="3" fill="#010415"/>
<circle cx="213" cy="143" r="3" fill="#010415"/>
<circle cx="227" cy="143" r="3" fill="#010415"/>
<circle cx="241" cy="143" r="3" fill="#010415"/>
<circle cx="255" cy="143" r="3" fill="#010415"/>
<circle cx="269" cy="143" r="3" fill="#010415"/>
<circle cx="283" cy="143" r="3" fill="#010415"/>
<circle cx="297" cy="143" r="3" fill="#010415"/>
<circle cx="311" cy="143" r="3" fill="#010415"/>
<circle cx="325" cy="143" r="3" fill="#010415"/>
<circle cx="339" cy="143" r="3" fill="#010415"/>
<circle cx="353" cy="143" r="3" fill="#010415"/>
<circle cx="367" cy="143" r="3" fill="#010415"/>
<circle cx="381" cy="143" r="3" fill="#010415"/>
<circle cx="395" cy="143" r="3" fill="#010415"/>
<circle cx="409" cy="143" r="3" fill="#010415"/>
<circle cx="423" cy="143" r="3" fill="#010415"/>
<circle cx="437" cy="143" r="3" fill="#010415"/>
<circle cx="3" cy="157" r="3" fill="#010415"/>
<circle cx="17" cy="157" r="3" fill="#010415"/>
<circle cx="31" cy="157" r="3" fill="#010415"/>
<circle cx="45" cy="157" r="3" fill="#010415"/>
<circle cx="59" cy="157" r="3" fill="#010415"/>
<circle cx="73" cy="157" r="3" fill="#010415"/>
<circle cx="87" cy="157" r="3" fill="#010415"/>
<circle cx="101" cy="157" r="3" fill="#010415"/>
<circle cx="115" cy="157" r="3" fill="#010415"/>
<circle cx="129" cy="157" r="3" fill="#010415"/>
<circle cx="143" cy="157" r="3" fill="#010415"/>
<circle cx="157" cy="157" r="3" fill="#010415"/>
<circle cx="171" cy="157" r="3" fill="#010415"/>
<circle cx="185" cy="157" r="3" fill="#010415"/>
<circle cx="199" cy="157" r="3" fill="#010415"/>
<circle cx="213" cy="157" r="3" fill="#010415"/>
<circle cx="227" cy="157" r="3" fill="#010415"/>
<circle cx="241" cy="157" r="3" fill="#010415"/>
<circle cx="255" cy="157" r="3" fill="#010415"/>
<circle cx="269" cy="157" r="3" fill="#010415"/>
<circle cx="283" cy="157" r="3" fill="#010415"/>
<circle cx="297" cy="157" r="3" fill="#010415"/>
<circle cx="311" cy="157" r="3" fill="#010415"/>
<circle cx="325" cy="157" r="3" fill="#010415"/>
<circle cx="339" cy="157" r="3" fill="#010415"/>
<circle cx="353" cy="157" r="3" fill="#010415"/>
<circle cx="367" cy="157" r="3" fill="#010415"/>
<circle cx="381" cy="157" r="3" fill="#010415"/>
<circle cx="395" cy="157" r="3" fill="#010415"/>
<circle cx="409" cy="157" r="3" fill="#010415"/>
<circle cx="423" cy="157" r="3" fill="#010415"/>
<circle cx="437" cy="157" r="3" fill="#010415"/>
<circle cx="3" cy="171" r="3" fill="#010415"/>
<circle cx="17" cy="171" r="3" fill="#010415"/>
<circle cx="31" cy="171" r="3" fill="#010415"/>
<circle cx="45" cy="171" r="3" fill="#010415"/>
<circle cx="59" cy="171" r="3" fill="#010415"/>
<circle cx="73" cy="171" r="3" fill="#010415"/>
<circle cx="87" cy="171" r="3" fill="#010415"/>
<circle cx="101" cy="171" r="3" fill="#010415"/>
<circle cx="115" cy="171" r="3" fill="#010415"/>
<circle cx="129" cy="171" r="3" fill="#010415"/>
<circle cx="143" cy="171" r="3" fill="#010415"/>
<circle cx="157" cy="171" r="3" fill="#010415"/>
<circle cx="171" cy="171" r="3" fill="#010415"/>
<circle cx="185" cy="171" r="3" fill="#010415"/>
<circle cx="199" cy="171" r="3" fill="#010415"/>
<circle cx="213" cy="171" r="3" fill="#010415"/>
<circle cx="227" cy="171" r="3" fill="#010415"/>
<circle cx="241" cy="171" r="3" fill="#010415"/>
<circle cx="255" cy="171" r="3" fill="#010415"/>
<circle cx="269" cy="171" r="3" fill="#010415"/>
<circle cx="283" cy="171" r="3" fill="#010415"/>
<circle cx="297" cy="171" r="3" fill="#010415"/>
<circle cx="311" cy="171" r="3" fill="#010415"/>
<circle cx="325" cy="171" r="3" fill="#010415"/>
<circle cx="339" cy="171" r="3" fill="#010415"/>
<circle cx="353" cy="171" r="3" fill="#010415"/>
<circle cx="367" cy="171" r="3" fill="#010415"/>
<circle cx="381" cy="171" r="3" fill="#010415"/>
<circle cx="395" cy="171" r="3" fill="#010415"/>
<circle cx="409" cy="171" r="3" fill="#010415"/>
<circle cx="423" cy="171" r="3" fill="#010415"/>
<circle cx="437" cy="171" r="3" fill="#010415"/>
<circle cx="3" cy="185" r="3" fill="#010415"/>
<circle cx="17" cy="185" r="3" fill="#010415"/>
<circle cx="31" cy="185" r="3" fill="#010415"/>
<circle cx="45" cy="185" r="3" fill="#010415"/>
<circle cx="59" cy="185" r="3" fill="#010415"/>
<circle cx="73" cy="185" r="3" fill="#010415"/>
<circle cx="87" cy="185" r="3" fill="#010415"/>
<circle cx="101" cy="185" r="3" fill="#010415"/>
<circle cx="115" cy="185" r="3" fill="#010415"/>
<circle cx="129" cy="185" r="3" fill="#010415"/>
<circle cx="143" cy="185" r="3" fill="#010415"/>
<circle cx="157" cy="185" r="3" fill="#010415"/>
<circle cx="171" cy="185" r="3" fill="#010415"/>
<circle cx="185" cy="185" r="3" fill="#010415"/>
<circle cx="199" cy="185" r="3" fill="#010415"/>
<circle cx="213" cy="185" r="3" fill="#010415"/>
<circle cx="227" cy="185" r="3" fill="#010415"/>
<circle cx="241" cy="185" r="3" fill="#010415"/>
<circle cx="255" cy="185" r="3" fill="#010415"/>
<circle cx="269" cy="185" r="3" fill="#010415"/>
<circle cx="283" cy="185" r="3" fill="#010415"/>
<circle cx="297" cy="185" r="3" fill="#010415"/>
<circle cx="311" cy="185" r="3" fill="#010415"/>
<circle cx="325" cy="185" r="3" fill="#010415"/>
<circle cx="339" cy="185" r="3" fill="#010415"/>
<circle cx="353" cy="185" r="3" fill="#010415"/>
<circle cx="367" cy="185" r="3" fill="#010415"/>
<circle cx="381" cy="185" r="3" fill="#010415"/>
<circle cx="395" cy="185" r="3" fill="#010415"/>
<circle cx="409" cy="185" r="3" fill="#010415"/>
<circle cx="423" cy="185" r="3" fill="#010415"/>
<circle cx="437" cy="185" r="3" fill="#010415"/>
<circle cx="3" cy="199" r="3" fill="#010415"/>
<circle cx="17" cy="199" r="3" fill="#010415"/>
<circle cx="31" cy="199" r="3" fill="#010415"/>
<circle cx="45" cy="199" r="3" fill="#010415"/>
<circle cx="59" cy="199" r="3" fill="#010415"/>
<circle cx="73" cy="199" r="3" fill="#010415"/>
<circle cx="87" cy="199" r="3" fill="#010415"/>
<circle cx="101" cy="199" r="3" fill="#010415"/>
<circle cx="115" cy="199" r="3" fill="#010415"/>
<circle cx="129" cy="199" r="3" fill="#010415"/>
<circle cx="143" cy="199" r="3" fill="#010415"/>
<circle cx="157" cy="199" r="3" fill="#010415"/>
<circle cx="171" cy="199" r="3" fill="#010415"/>
<circle cx="185" cy="199" r="3" fill="#010415"/>
<circle cx="199" cy="199" r="3" fill="#010415"/>
<circle cx="213" cy="199" r="3" fill="#010415"/>
<circle cx="227" cy="199" r="3" fill="#010415"/>
<circle cx="241" cy="199" r="3" fill="#010415"/>
<circle cx="255" cy="199" r="3" fill="#010415"/>
<circle cx="269" cy="199" r="3" fill="#010415"/>
<circle cx="283" cy="199" r="3" fill="#010415"/>
<circle cx="297" cy="199" r="3" fill="#010415"/>
<circle cx="311" cy="199" r="3" fill="#010415"/>
<circle cx="325" cy="199" r="3" fill="#010415"/>
<circle cx="339" cy="199" r="3" fill="#010415"/>
<circle cx="353" cy="199" r="3" fill="#010415"/>
<circle cx="367" cy="199" r="3" fill="#010415"/>
<circle cx="381" cy="199" r="3" fill="#010415"/>
<circle cx="395" cy="199" r="3" fill="#010415"/>
<circle cx="409" cy="199" r="3" fill="#010415"/>
<circle cx="423" cy="199" r="3" fill="#010415"/>
<circle cx="437" cy="199" r="3" fill="#010415"/>
<circle cx="3" cy="213" r="3" fill="#010415"/>
<circle cx="17" cy="213" r="3" fill="#010415"/>
<circle cx="31" cy="213" r="3" fill="#010415"/>
<circle cx="45" cy="213" r="3" fill="#010415"/>
<circle cx="59" cy="213" r="3" fill="#010415"/>
<circle cx="73" cy="213" r="3" fill="#010415"/>
<circle cx="87" cy="213" r="3" fill="#010415"/>
<circle cx="101" cy="213" r="3" fill="#010415"/>
<circle cx="115" cy="213" r="3" fill="#010415"/>
<circle cx="129" cy="213" r="3" fill="#010415"/>
<circle cx="143" cy="213" r="3" fill="#010415"/>
<circle cx="157" cy="213" r="3" fill="#010415"/>
<circle cx="171" cy="213" r="3" fill="#010415"/>
<circle cx="185" cy="213" r="3" fill="#010415"/>
<circle cx="199" cy="213" r="3" fill="#010415"/>
<circle cx="213" cy="213" r="3" fill="#010415"/>
<circle cx="227" cy="213" r="3" fill="#010415"/>
<circle cx="241" cy="213" r="3" fill="#010415"/>
<circle cx="255" cy="213" r="3" fill="#010415"/>
<circle cx="269" cy="213" r="3" fill="#010415"/>
<circle cx="283" cy="213" r="3" fill="#010415"/>
<circle cx="297" cy="213" r="3" fill="#010415"/>
<circle cx="311" cy="213" r="3" fill="#010415"/>
<circle cx="325" cy="213" r="3" fill="#010415"/>
<circle cx="339" cy="213" r="3" fill="#010415"/>
<circle cx="353" cy="213" r="3" fill="#010415"/>
<circle cx="367" cy="213" r="3" fill="#010415"/>
<circle cx="381" cy="213" r="3" fill="#010415"/>
<circle cx="395" cy="213" r="3" fill="#010415"/>
<circle cx="409" cy="213" r="3" fill="#010415"/>
<circle cx="423" cy="213" r="3" fill="#010415"/>
<circle cx="437" cy="213" r="3" fill="#010415"/>
<circle cx="3" cy="227" r="3" fill="#010415"/>
<circle cx="17" cy="227" r="3" fill="#010415"/>
<circle cx="31" cy="227" r="3" fill="#010415"/>
<circle cx="45" cy="227" r="3" fill="#010415"/>
<circle cx="59" cy="227" r="3" fill="#010415"/>
<circle cx="73" cy="227" r="3" fill="#010415"/>
<circle cx="87" cy="227" r="3" fill="#010415"/>
<circle cx="101" cy="227" r="3" fill="#010415"/>
<circle cx="115" cy="227" r="3" fill="#010415"/>
<circle cx="129" cy="227" r="3" fill="#010415"/>
<circle cx="143" cy="227" r="3" fill="#010415"/>
<circle cx="157" cy="227" r="3" fill="#010415"/>
<circle cx="171" cy="227" r="3" fill="#010415"/>
<circle cx="185" cy="227" r="3" fill="#010415"/>
<circle cx="199" cy="227" r="3" fill="#010415"/>
<circle cx="213" cy="227" r="3" fill="#010415"/>
<circle cx="227" cy="227" r="3" fill="#010415"/>
<circle cx="241" cy="227" r="3" fill="#010415"/>
<circle cx="255" cy="227" r="3" fill="#010415"/>
<circle cx="269" cy="227" r="3" fill="#010415"/>
<circle cx="283" cy="227" r="3" fill="#010415"/>
<circle cx="297" cy="227" r="3" fill="#010415"/>
<circle cx="311" cy="227" r="3" fill="#010415"/>
<circle cx="325" cy="227" r="3" fill="#010415"/>
<circle cx="339" cy="227" r="3" fill="#010415"/>
<circle cx="353" cy="227" r="3" fill="#010415"/>
<circle cx="367" cy="227" r="3" fill="#010415"/>
<circle cx="381" cy="227" r="3" fill="#010415"/>
<circle cx="395" cy="227" r="3" fill="#010415"/>
<circle cx="409" cy="227" r="3" fill="#010415"/>
<circle cx="423" cy="227" r="3" fill="#010415"/>
<circle cx="437" cy="227" r="3" fill="#010415"/>
<circle cx="3" cy="241" r="3" fill="#010415"/>
<circle cx="17" cy="241" r="3" fill="#010415"/>
<circle cx="31" cy="241" r="3" fill="#010415"/>
<circle cx="45" cy="241" r="3" fill="#010415"/>
<circle cx="59" cy="241" r="3" fill="#010415"/>
<circle cx="73" cy="241" r="3" fill="#010415"/>
<circle cx="87" cy="241" r="3" fill="#010415"/>
<circle cx="101" cy="241" r="3" fill="#010415"/>
<circle cx="115" cy="241" r="3" fill="#010415"/>
<circle cx="129" cy="241" r="3" fill="#010415"/>
<circle cx="143" cy="241" r="3" fill="#010415"/>
<circle cx="157" cy="241" r="3" fill="#010415"/>
<circle cx="171" cy="241" r="3" fill="#010415"/>
<circle cx="185" cy="241" r="3" fill="#010415"/>
<circle cx="199" cy="241" r="3" fill="#010415"/>
<circle cx="213" cy="241" r="3" fill="#010415"/>
<circle cx="227" cy="241" r="3" fill="#010415"/>
<circle cx="241" cy="241" r="3" fill="#010415"/>
<circle cx="255" cy="241" r="3" fill="#010415"/>
<circle cx="269" cy="241" r="3" fill="#010415"/>
<circle cx="283" cy="241" r="3" fill="#010415"/>
<circle cx="297" cy="241" r="3" fill="#010415"/>
<circle cx="311" cy="241" r="3" fill="#010415"/>
<circle cx="325" cy="241" r="3" fill="#010415"/>
<circle cx="339" cy="241" r="3" fill="#010415"/>
<circle cx="353" cy="241" r="3" fill="#010415"/>
<circle cx="367" cy="241" r="3" fill="#010415"/>
<circle cx="381" cy="241" r="3" fill="#010415"/>
<circle cx="395" cy="241" r="3" fill="#010415"/>
<circle cx="409" cy="241" r="3" fill="#010415"/>
<circle cx="423" cy="241" r="3" fill="#010415"/>
<circle cx="437" cy="241" r="3" fill="#010415"/>
<circle cx="3" cy="255" r="3" fill="#010415"/>
<circle cx="17" cy="255" r="3" fill="#010415"/>
<circle cx="31" cy="255" r="3" fill="#010415"/>
<circle cx="45" cy="255" r="3" fill="#010415"/>
<circle cx="59" cy="255" r="3" fill="#010415"/>
<circle cx="73" cy="255" r="3" fill="#010415"/>
<circle cx="87" cy="255" r="3" fill="#010415"/>
<circle cx="101" cy="255" r="3" fill="#010415"/>
<circle cx="115" cy="255" r="3" fill="#010415"/>
<circle cx="129" cy="255" r="3" fill="#010415"/>
<circle cx="143" cy="255" r="3" fill="#010415"/>
<circle cx="157" cy="255" r="3" fill="#010415"/>
<circle cx="171" cy="255" r="3" fill="#010415"/>
<circle cx="185" cy="255" r="3" fill="#010415"/>
<circle cx="199" cy="255" r="3" fill="#010415"/>
<circle cx="213" cy="255" r="3" fill="#010415"/>
<circle cx="227" cy="255" r="3" fill="#010415"/>
<circle cx="241" cy="255" r="3" fill="#010415"/>
<circle cx="255" cy="255" r="3" fill="#010415"/>
<circle cx="269" cy="255" r="3" fill="#010415"/>
<circle cx="283" cy="255" r="3" fill="#010415"/>
<circle cx="297" cy="255" r="3" fill="#010415"/>
<circle cx="311" cy="255" r="3" fill="#010415"/>
<circle cx="325" cy="255" r="3" fill="#010415"/>
<circle cx="339" cy="255" r="3" fill="#010415"/>
<circle cx="353" cy="255" r="3" fill="#010415"/>
<circle cx="367" cy="255" r="3" fill="#010415"/>
<circle cx="381" cy="255" r="3" fill="#010415"/>
<circle cx="395" cy="255" r="3" fill="#010415"/>
<circle cx="409" cy="255" r="3" fill="#010415"/>
<circle cx="423" cy="255" r="3" fill="#010415"/>
<circle cx="437" cy="255" r="3" fill="#010415"/>
<circle cx="3" cy="269" r="3" fill="#010415"/>
<circle cx="17" cy="269" r="3" fill="#010415"/>
<circle cx="31" cy="269" r="3" fill="#010415"/>
<circle cx="45" cy="269" r="3" fill="#010415"/>
<circle cx="59" cy="269" r="3" fill="#010415"/>
<circle cx="73" cy="269" r="3" fill="#010415"/>
<circle cx="87" cy="269" r="3" fill="#010415"/>
<circle cx="101" cy="269" r="3" fill="#010415"/>
<circle cx="115" cy="269" r="3" fill="#010415"/>
<circle cx="129" cy="269" r="3" fill="#010415"/>
<circle cx="143" cy="269" r="3" fill="#010415"/>
<circle cx="157" cy="269" r="3" fill="#010415"/>
<circle cx="171" cy="269" r="3" fill="#010415"/>
<circle cx="185" cy="269" r="3" fill="#010415"/>
<circle cx="199" cy="269" r="3" fill="#010415"/>
<circle cx="213" cy="269" r="3" fill="#010415"/>
<circle cx="227" cy="269" r="3" fill="#010415"/>
<circle cx="241" cy="269" r="3" fill="#010415"/>
<circle cx="255" cy="269" r="3" fill="#010415"/>
<circle cx="269" cy="269" r="3" fill="#010415"/>
<circle cx="283" cy="269" r="3" fill="#010415"/>
<circle cx="297" cy="269" r="3" fill="#010415"/>
<circle cx="311" cy="269" r="3" fill="#010415"/>
<circle cx="325" cy="269" r="3" fill="#010415"/>
<circle cx="339" cy="269" r="3" fill="#010415"/>
<circle cx="353" cy="269" r="3" fill="#010415"/>
<circle cx="367" cy="269" r="3" fill="#010415"/>
<circle cx="381" cy="269" r="3" fill="#010415"/>
<circle cx="395" cy="269" r="3" fill="#010415"/>
<circle cx="409" cy="269" r="3" fill="#010415"/>
<circle cx="423" cy="269" r="3" fill="#010415"/>
<circle cx="437" cy="269" r="3" fill="#010415"/>
<circle cx="3" cy="283" r="3" fill="#010415"/>
<circle cx="17" cy="283" r="3" fill="#010415"/>
<circle cx="31" cy="283" r="3" fill="#010415"/>
<circle cx="45" cy="283" r="3" fill="#010415"/>
<circle cx="59" cy="283" r="3" fill="#010415"/>
<circle cx="73" cy="283" r="3" fill="#010415"/>
<circle cx="87" cy="283" r="3" fill="#010415"/>
<circle cx="101" cy="283" r="3" fill="#010415"/>
<circle cx="115" cy="283" r="3" fill="#010415"/>
<circle cx="129" cy="283" r="3" fill="#010415"/>
<circle cx="143" cy="283" r="3" fill="#010415"/>
<circle cx="157" cy="283" r="3" fill="#010415"/>
<circle cx="171" cy="283" r="3" fill="#010415"/>
<circle cx="185" cy="283" r="3" fill="#010415"/>
<circle cx="199" cy="283" r="3" fill="#010415"/>
<circle cx="213" cy="283" r="3" fill="#010415"/>
<circle cx="227" cy="283" r="3" fill="#010415"/>
<circle cx="241" cy="283" r="3" fill="#010415"/>
<circle cx="255" cy="283" r="3" fill="#010415"/>
<circle cx="269" cy="283" r="3" fill="#010415"/>
<circle cx="283" cy="283" r="3" fill="#010415"/>
<circle cx="297" cy="283" r="3" fill="#010415"/>
<circle cx="311" cy="283" r="3" fill="#010415"/>
<circle cx="325" cy="283" r="3" fill="#010415"/>
<circle cx="339" cy="283" r="3" fill="#010415"/>
<circle cx="353" cy="283" r="3" fill="#010415"/>
<circle cx="367" cy="283" r="3" fill="#010415"/>
<circle cx="381" cy="283" r="3" fill="#010415"/>
<circle cx="395" cy="283" r="3" fill="#010415"/>
<circle cx="409" cy="283" r="3" fill="#010415"/>
<circle cx="423" cy="283" r="3" fill="#010415"/>
<circle cx="437" cy="283" r="3" fill="#010415"/>
<circle cx="3" cy="297" r="3" fill="#010415"/>
<circle cx="17" cy="297" r="3" fill="#010415"/>
<circle cx="31" cy="297" r="3" fill="#010415"/>
<circle cx="45" cy="297" r="3" fill="#010415"/>
<circle cx="59" cy="297" r="3" fill="#010415"/>
<circle cx="73" cy="297" r="3" fill="#010415"/>
<circle cx="87" cy="297" r="3" fill="#010415"/>
<circle cx="101" cy="297" r="3" fill="#010415"/>
<circle cx="115" cy="297" r="3" fill="#010415"/>
<circle cx="129" cy="297" r="3" fill="#010415"/>
<circle cx="143" cy="297" r="3" fill="#010415"/>
<circle cx="157" cy="297" r="3" fill="#010415"/>
<circle cx="171" cy="297" r="3" fill="#010415"/>
<circle cx="185" cy="297" r="3" fill="#010415"/>
<circle cx="199" cy="297" r="3" fill="#010415"/>
<circle cx="213" cy="297" r="3" fill="#010415"/>
<circle cx="227" cy="297" r="3" fill="#010415"/>
<circle cx="241" cy="297" r="3" fill="#010415"/>
<circle cx="255" cy="297" r="3" fill="#010415"/>
<circle cx="269" cy="297" r="3" fill="#010415"/>
<circle cx="283" cy="297" r="3" fill="#010415"/>
<circle cx="297" cy="297" r="3" fill="#010415"/>
<circle cx="311" cy="297" r="3" fill="#010415"/>
<circle cx="325" cy="297" r="3" fill="#010415"/>
<circle cx="339" cy="297" r="3" fill="#010415"/>
<circle cx="353" cy="297" r="3" fill="#010415"/>
<circle cx="367" cy="297" r="3" fill="#010415"/>
<circle cx="381" cy="297" r="3" fill="#010415"/>
<circle cx="395" cy="297" r="3" fill="#010415"/>
<circle cx="409" cy="297" r="3" fill="#010415"/>
<circle cx="423" cy="297" r="3" fill="#010415"/>
<circle cx="437" cy="297" r="3" fill="#010415"/>
<circle cx="3" cy="311" r="3" fill="#010415"/>
<circle cx="17" cy="311" r="3" fill="#010415"/>
<circle cx="31" cy="311" r="3" fill="#010415"/>
<circle cx="45" cy="311" r="3" fill="#010415"/>
<circle cx="59" cy="311" r="3" fill="#010415"/>
<circle cx="73" cy="311" r="3" fill="#010415"/>
<circle cx="87" cy="311" r="3" fill="#010415"/>
<circle cx="101" cy="311" r="3" fill="#010415"/>
<circle cx="115" cy="311" r="3" fill="#010415"/>
<circle cx="129" cy="311" r="3" fill="#010415"/>
<circle cx="143" cy="311" r="3" fill="#010415"/>
<circle cx="157" cy="311" r="3" fill="#010415"/>
<circle cx="171" cy="311" r="3" fill="#010415"/>
<circle cx="185" cy="311" r="3" fill="#010415"/>
<circle cx="199" cy="311" r="3" fill="#010415"/>
<circle cx="213" cy="311" r="3" fill="#010415"/>
<circle cx="227" cy="311" r="3" fill="#010415"/>
<circle cx="241" cy="311" r="3" fill="#010415"/>
<circle cx="255" cy="311" r="3" fill="#010415"/>
<circle cx="269" cy="311" r="3" fill="#010415"/>
<circle cx="283" cy="311" r="3" fill="#010415"/>
<circle cx="297" cy="311" r="3" fill="#010415"/>
<circle cx="311" cy="311" r="3" fill="#010415"/>
<circle cx="325" cy="311" r="3" fill="#010415"/>
<circle cx="339" cy="311" r="3" fill="#010415"/>
<circle cx="353" cy="311" r="3" fill="#010415"/>
<circle cx="367" cy="311" r="3" fill="#010415"/>
<circle cx="381" cy="311" r="3" fill="#010415"/>
<circle cx="395" cy="311" r="3" fill="#010415"/>
<circle cx="409" cy="311" r="3" fill="#010415"/>
<circle cx="423" cy="311" r="3" fill="#010415"/>
<circle cx="437" cy="311" r="3" fill="#010415"/>
<circle cx="3" cy="325" r="3" fill="#010415"/>
<circle cx="17" cy="325" r="3" fill="#010415"/>
<circle cx="31" cy="325" r="3" fill="#010415"/>
<circle cx="45" cy="325" r="3" fill="#010415"/>
<circle cx="59" cy="325" r="3" fill="#010415"/>
<circle cx="73" cy="325" r="3" fill="#010415"/>
<circle cx="87" cy="325" r="3" fill="#010415"/>
<circle cx="101" cy="325" r="3" fill="#010415"/>
<circle cx="115" cy="325" r="3" fill="#010415"/>
<circle cx="129" cy="325" r="3" fill="#010415"/>
<circle cx="143" cy="325" r="3" fill="#010415"/>
<circle cx="157" cy="325" r="3" fill="#010415"/>
<circle cx="171" cy="325" r="3" fill="#010415"/>
<circle cx="185" cy="325" r="3" fill="#010415"/>
<circle cx="199" cy="325" r="3" fill="#010415"/>
<circle cx="213" cy="325" r="3" fill="#010415"/>
<circle cx="227" cy="325" r="3" fill="#010415"/>
<circle cx="241" cy="325" r="3" fill="#010415"/>
<circle cx="255" cy="325" r="3" fill="#010415"/>
<circle cx="269" cy="325" r="3" fill="#010415"/>
<circle cx="283" cy="325" r="3" fill="#010415"/>
<circle cx="297" cy="325" r="3" fill="#010415"/>
<circle cx="311" cy="325" r="3" fill="#010415"/>
<circle cx="325" cy="325" r="3" fill="#010415"/>
<circle cx="339" cy="325" r="3" fill="#010415"/>
<circle cx="353" cy="325" r="3" fill="#010415"/>
<circle cx="367" cy="325" r="3" fill="#010415"/>
<circle cx="381" cy="325" r="3" fill="#010415"/>
<circle cx="395" cy="325" r="3" fill="#010415"/>
<circle cx="409" cy="325" r="3" fill="#010415"/>
<circle cx="423" cy="325" r="3" fill="#010415"/>
<circle cx="437" cy="325" r="3" fill="#010415"/>
<circle cx="3" cy="339" r="3" fill="#010415"/>
<circle cx="17" cy="339" r="3" fill="#010415"/>
<circle cx="31" cy="339" r="3" fill="#010415"/>
<circle cx="45" cy="339" r="3" fill="#010415"/>
<circle cx="59" cy="339" r="3" fill="#010415"/>
<circle cx="73" cy="339" r="3" fill="#010415"/>
<circle cx="87" cy="339" r="3" fill="#010415"/>
<circle cx="101" cy="339" r="3" fill="#010415"/>
<circle cx="115" cy="339" r="3" fill="#010415"/>
<circle cx="129" cy="339" r="3" fill="#010415"/>
<circle cx="143" cy="339" r="3" fill="#010415"/>
<circle cx="157" cy="339" r="3" fill="#010415"/>
<circle cx="171" cy="339" r="3" fill="#010415"/>
<circle cx="185" cy="339" r="3" fill="#010415"/>
<circle cx="199" cy="339" r="3" fill="#010415"/>
<circle cx="213" cy="339" r="3" fill="#010415"/>
<circle cx="227" cy="339" r="3" fill="#010415"/>
<circle cx="241" cy="339" r="3" fill="#010415"/>
<circle cx="255" cy="339" r="3" fill="#010415"/>
<circle cx="269" cy="339" r="3" fill="#010415"/>
<circle cx="283" cy="339" r="3" fill="#010415"/>
<circle cx="297" cy="339" r="3" fill="#010415"/>
<circle cx="311" cy="339" r="3" fill="#010415"/>
<circle cx="325" cy="339" r="3" fill="#010415"/>
<circle cx="339" cy="339" r="3" fill="#010415"/>
<circle cx="353" cy="339" r="3" fill="#010415"/>
<circle cx="367" cy="339" r="3" fill="#010415"/>
<circle cx="381" cy="339" r="3" fill="#010415"/>
<circle cx="395" cy="339" r="3" fill="#010415"/>
<circle cx="409" cy="339" r="3" fill="#010415"/>
<circle cx="423" cy="339" r="3" fill="#010415"/>
<circle cx="437" cy="339" r="3" fill="#010415"/>
</g>
</svg>
