<svg width="70" height="70" viewBox="0 0 70 70" fill="none" xmlns="http://www.w3.org/2000/svg">
<path fill-rule="evenodd" clip-rule="evenodd" d="M8 0C3.58172 0 0 3.58172 0 8V62C0 66.4183 3.58172 70 8 70H62C66.4183 70 70 66.4183 70 62V8C70 3.58172 66.4183 0 62 0H8ZM29.25 49.375C29.25 52.25 32.125 52.25 32.125 52.25H55.125C55.125 52.25 58 52.25 58 49.375C58 46.5 55.125 37.875 43.625 37.875C32.125 37.875 29.25 46.5 29.25 49.375ZM49.7238 32.4738C48.1063 34.0913 45.9125 35 43.625 35C41.3375 35 39.1437 34.0913 37.5262 32.4738C35.9087 30.8563 35 28.6625 35 26.375C35 24.0875 35.9087 21.8937 37.5262 20.2762C39.1437 18.6587 41.3375 17.75 43.625 17.75C45.9125 17.75 48.1063 18.6587 49.7238 20.2762C51.3413 21.8937 52.25 24.0875 52.25 26.375C52.25 28.6625 51.3413 30.8563 49.7238 32.4738ZM26.375 49.375C26.3572 50.3684 26.5698 51.3525 26.996 52.25H14.875C14.875 52.25 12 52.25 12 49.375C12 46.5 14.875 37.875 26.375 37.875C28.2609 37.8531 30.1386 38.1247 31.941 38.68C28.33 41.4688 26.375 45.4794 26.375 49.375ZM30.0198 32.8948C28.6719 34.2427 26.8437 35 24.9375 35C23.0313 35 21.2031 34.2427 19.8552 32.8948C18.5073 31.5469 17.75 29.7187 17.75 27.8125C17.75 25.9063 18.5073 24.0781 19.8552 22.7302C21.2031 21.3823 23.0313 20.625 24.9375 20.625C26.8437 20.625 28.6719 21.3823 30.0198 22.7302C31.3677 24.0781 32.125 25.9063 32.125 27.8125C32.125 29.7187 31.3677 31.5469 30.0198 32.8948Z" fill="white"/>
</svg>
